<?xml version="1.0" encoding="UTF-8"?>
<svg id="Layer_1" data-name="Layer 1" xmlns="http://www.w3.org/2000/svg" viewBox="0 0 2000 2000">
  <defs>
    <style>
      .cls-1 {
        fill: #fff;
      }

      .cls-2 {
        fill: rgb(44,43,49);
      }
    </style>
  </defs>
  <rect class="cls-2" x="0" width="2000" height="2000"/>
  <g>
    <path class="cls-1" d="M861.54,835.68h-24.16v-6.62h55.96v6.62h-24.23v66.6h-7.57v-66.6Z"/>
    <path class="cls-1" d="M908.6,825.11v32.76c2.84-5.1,7.84-9.63,16.99-9.63,7.94,0,17.81,4.18,17.81,20.42v33.62h-7.01v-32.36c0-9.78-4.32-15.27-12.58-15.27-10.01,0-15.2,6.36-15.2,18.44v29.18h-7.03v-77.17h7.03Z"/>
    <path class="cls-1" d="M963.02,876.99c.09,12.3,6.28,20.37,15.88,20.37s12.27-5,14.08-9.12h7.12c-2.15,6.87-7.78,15.29-21.44,15.29-16.3,0-22.77-13.67-22.77-27.16,0-15.37,7.68-28.14,23.38-28.14,16.61,0,21.97,13.87,21.97,24.4,0,1.54,0,2.95-.12,4.35h-38.09ZM994.03,871.53c-.1-9.64-5.2-17.3-14.94-17.3s-14.71,7.08-15.76,17.3h30.7Z"/>
    <path class="cls-1" d="M1049.21,888.23l-4.18,14.05h-20.62l22.83-72.24h27.4l23.73,72.24h-22.1l-4.39-14.05h-22.67ZM1068.16,872.54c-3.39-11.35-6.17-21.44-7.81-28.49h-.29c-1.67,7.78-4.43,18.09-7.36,28.49h15.46Z"/>
    <path class="cls-1" d="M1156.81,883.23c-1.64,9.9-8.07,20.38-27.03,20.38s-27.85-12.69-27.85-28.33c0-16.52,10.25-29.32,28.59-29.32,20.72,0,25.93,13.97,26.29,20.61h-19.48c-.54-3.86-2.23-6.92-6.72-6.92-5.15,0-7.76,4.86-7.76,14.92,0,11.32,2.85,15.5,7.65,15.5,4.16,0,5.98-3.16,6.88-6.83h19.44Z"/>
    <path class="cls-1" d="M1215.95,885.97c0,6.2.31,14.46.66,16.31h-18.87c-.42-1.12-.77-3.73-.84-5.08-2.62,3.42-6.66,6.41-15.51,6.41-12.33,0-19-7.75-19-17.53,0-12.92,10.36-18.51,27.15-18.51h6.75v-3.04c0-3.52-1.25-6.11-6.18-6.11-4.63,0-5.84,2.12-6.33,5.67h-18.88c.73-9.18,6.17-18.2,25.72-18.13,18.03.07,25.33,7.02,25.33,20.27v19.73ZM1196.28,877.88h-4.53c-7.05,0-9.36,2.47-9.36,6.53,0,3.23,1.91,5.83,5.99,5.83,6.93,0,7.91-4.75,7.91-10.66v-1.7Z"/>
    <path class="cls-1" d="M1282.56,826.29v59.36c0,5.52-.04,11.88.1,16.63h-19.79c-.31-1.6-.59-3.9-.7-5.24-2.73,4.02-7.06,6.58-14.96,6.58-14.44,0-22.22-12.38-22.22-28.48s9-29.17,24.45-29.17c6.49,0,11.13,2,12.65,4.57v-24.24h20.45ZM1245.95,874.64c0,9.63,2.82,14.6,8.56,14.6,7.72,0,8.41-7.02,8.41-14.53,0-9.22-.83-14.52-8.17-14.52-5.75,0-8.8,4.66-8.8,14.46Z"/>
    <path class="cls-1" d="M1312.14,878.83c0,5.54,2.13,11.09,8.15,11.09,4.85,0,6.24-2.06,7.27-4.95h20.08c-2,7.31-8.24,18.64-27.7,18.64-20.76,0-28.4-13.98-28.4-28.35,0-16.57,8.77-29.29,28.78-29.29,21.31,0,27.81,14.42,27.81,28.14,0,1.85-.04,3.23-.21,4.73h-35.78ZM1327.65,868.16c-.07-5.14-1.54-9.48-7.39-9.48-5.46,0-7.57,4.03-7.91,9.48h15.3Z"/>
    <path class="cls-1" d="M1357.39,862.35c0-5.05,0-10.37-.1-15.05h19.61c.21,1.26.52,3.91.63,5.86,2.98-3.77,7.57-7.19,15.48-7.19s12.21,4.05,14.03,7.57c3.18-3.71,7.72-7.57,16.86-7.57,10.24,0,17.82,6.46,17.82,20.55v35.77h-20v-34c0-4.06-1.35-7.4-5.72-7.4s-6.31,2.98-6.31,9.29v32.11h-20.1v-33.81c0-4.13-1.04-7.52-5.62-7.52s-6.41,2.56-6.41,9.7v31.63h-20.17v-39.93Z"/>
    <path class="cls-1" d="M1468.96,847.3c3.6,13.96,7.58,31.41,8.35,37.38h.36c1.12-7.19,3.5-18.95,7.93-37.38h20.16l-16.35,51.78c-5.58,17.69-9.95,24.4-27.31,24.4-1.33,0-5.42-.18-8.45-.49v-14.66c.72.07,2.51.21,3.85.21,4.77,0,7.34-1.31,8.79-5.41l-19.54-55.82h22.19Z"/>
  </g>
  <g>
    <path class="cls-1" d="M837.26,932.05h104.41c53.59,0,90.06,29.64,90.06,77.58,0,53.61-40.57,79.43-91.64,79.43h-54.01v98.82h-48.82v-255.83ZM886.08,1050.34h48.78c29.27,0,47.45-12.34,47.45-39.71s-20.12-39.85-46.21-39.85h-50.02v79.56Z"/>
    <path class="cls-1" d="M1063.98,1187.89v-255.23h44.04v255.23h-44.04Z"/>
    <path class="cls-1" d="M1306.5,1132.58c0,18.38.11,40.24.37,55.3h-45.66c-.75-5.07-1.13-15.72-1.39-24.14-10.78,19.75-28.35,28.58-54.93,28.58-37.04,0-64.21-20.99-64.21-70.33v-124.26h46.57v114.89c0,22.34,7.06,41.6,33.18,41.6,28.1,0,39.4-15.01,39.4-55.97v-100.51h46.68v134.84Z"/>
    <path class="cls-1" d="M1378.66,1131.65c4.54,17.04,18.13,26.8,40.16,26.8s31.14-8.68,31.14-22.14-8.49-20.03-39.22-27.43c-60.29-14.58-70.99-32.9-70.99-59.39s20.05-56.2,75.38-56.2,75.61,30.45,77.56,56.46h-44.57c-2.06-8.79-8.4-23.36-35.05-23.36-20.82,0-27.32,9.42-27.32,19.29,0,11.05,6.64,16.45,39.34,24.03,62.42,14.39,72.41,35.3,72.41,63.3,0,32.11-25.15,59.3-80.38,59.3s-80-26.86-84.47-60.67h46Z"/>
  </g>
  <g>
    <polygon class="cls-1" points="536.43 911.63 536.43 956.81 548.64 944.6 559.72 955.68 559.72 914.3 536.43 911.63"/>
    <polygon class="cls-1" points="581.68 916.65 513.06 909.48 668.73 828.06 820.3 907.95 749.63 916.65 581.68 916.65"/>
    <path class="cls-1" d="M753.19,902.17l-24.08,60.04c-14.99-26.88-30.19-43.09-62.44-41.83-31.56,1.24-46.74,17.36-58.62,40.4l-27.89-58.62h173.04Z"/>
    <path class="cls-2" d="M587.75,919.24c27.67-17.21,49.89-30.22,78.13-46.43l.8-.46.8.45c28.75,16.06,51.43,28.34,79.61,45.44-29.5-14.7-52.26-26.84-81.19-42.58h1.59c-28.43,15.88-50.74,28.69-79.74,43.58Z"/>
    <path class="cls-1" d="M555.63,1059.42c0,11.07,4.48,21.09,11.75,28.35,7.25,7.26,17.27,11.75,28.34,11.75h32.22v14.62h-35.07c-15.11,0-28.79-6.12-38.69-16.02-9.9-9.9-16.02-23.58-16.02-38.69,0-30.21,24.5-54.71,54.72-54.71h35.07v14.62h-32.22c-22.14,0-40.09,17.95-40.09,40.09Z"/>
    <path class="cls-1" d="M796.9,1059.42c0,30.22-24.5,54.71-54.72,54.71h-34.06v-14.62h32.35c22.14,0,40.09-17.95,40.09-40.1,0-11.07-4.48-21.09-11.75-28.35-7.25-7.25-17.27-11.74-28.34-11.74h-32.35v-14.62h34.06c15.11,0,28.79,6.12,38.69,16.02,9.9,9.9,16.02,23.58,16.02,38.69Z"/>
    <path class="cls-1" d="M708.12,1130.27c0,11.07-4.48,21.1-11.75,28.35-7.25,7.25-17.27,11.75-28.34,11.75-22.14,0-40.1-17.95-40.1-40.1v-30.76h-15.13v34.57c0,30.21,24.5,54.71,54.71,54.71,15.11,0,28.79-6.12,38.69-16.02,9.9-9.9,16.02-23.58,16.02-38.69v-34.57h-14.11v30.76ZM667.52,930.05c-15.1,0-28.79,6.12-38.69,16.02-9.9,9.9-16.02,23.58-16.02,38.69v34.57h15.13v-30.01c0-11.07,4.49-21.09,11.75-28.35,7.25-7.25,17.28-11.74,28.35-11.74,22.14,0,40.09,17.95,40.09,40.09v30.01h14.11v-34.57c0-30.22-24.49-54.71-54.71-54.71Z"/>
  </g>
</svg>